<svg viewBox="0 0 24 24" xmlns="http://www.w3.org/2000/svg">

	<symbol viewBox="0 0 24 24" id="discord">
		<path fill="#fff" d="M20.3 4.5a20 20 0 0 0-5-1.5l-.6 1.3C13 4 11.1 4 9.3 4.3A12.4 12.4 0 0 0 8.6 3a20 20 0 0 0-5 1.5A19.7 19.7 0 0 0 .1 18a20 20 0 0 0 6.1 3 13.8 13.8 0 0 0 1.2-2v-.1a13.2 13.2 0 0 1-2-1h.1a10.8 10.8 0 0 0 .5-.3 14.4 14.4 0 0 0 12.1 0 9 9 0 0 0 .4.4 12.3 12.3 0 0 1-2 1 15.7 15.7 0 0 0 1.4 2 20 20 0 0 0 6-3 19.6 19.6 0 0 0-3.6-13.5ZM8 15.3c-1.2 0-2.1-1-2.1-2.4 0-1.3 1-2.4 2.1-2.4 1.2 0 2.2 1.1 2.2 2.4 0 1.3-1 2.4-2.2 2.4Zm8 0c-1.2 0-2.2-1-2.2-2.4 0-1.3 1-2.4 2.2-2.4 1.2 0 2.2 1.1 2.2 2.4 0 1.3-1 2.4-2.2 2.4Z"/>
	</symbol>

	<symbol viewBox="0 0 24 24" id="AAAAAA">
	</symbol>

	<symbol viewBox="0 0 24 24" id="AAAAAA">
	</symbol>

	<symbol viewBox="0 0 24 24" id="AAAAAA">
	</symbol>

	<symbol viewBox="0 0 24 24" id="AAAAAA">
	</symbol>

	<symbol viewBox="0 0 24 24" id="AAAAAA">
	</symbol>

	<symbol viewBox="0 0 24 24" id="AAAAAA">
	</symbol>

	<symbol viewBox="0 0 24 24" id="AAAAAA">
	</symbol>

	<symbol viewBox="0 0 24 24" id="AAAAAA">
	</symbol>

	<symbol viewBox="0 0 24 24" id="AAAAAA">
	</symbol>

</svg>