<svg viewBox="0 0 24 24" xmlns="http://www.w3.org/2000/svg" style="display:none">
  <symbol id="platform-upload" viewBox="0 0 36 36">
    <path fill="#4198FE" d="M17.1 15H20V6.8h4L18.5 0 13 6.8h4.1V15Z"/>
    <path fill="#4198FE" d="M29.3 19.3H7.7V10H5v9.3C5 20.8 6.2 22 7.7 22h21.6c.7 0 1.4-.3 2-.8.4-.5.7-1.2.7-1.9V10h-2.7v9.3Z"/>
  </symbol>
  <symbol id="platform-youtube" viewBox="0 0 36 36">
    <path fill="red" d="M34.3 3.7a4.3 4.3 0 0 0-3-3C28.6 0 18 0 18 0S7.3 0 4.7.7a4.3 4.3 0 0 0-3 3c-1 5.5-1 11 0 16.5a4.3 4.3 0 0 0 3 3c2.6.7 13.3.7 13.3.7s10.7 0 13.3-.7a4.3 4.3 0 0 0 3-3c1-5.5 1-11 0-16.5Z"/>
    <path fill="#fff" d="m14.6 17 8.8-5-8.8-5.2v10.3-.1Z"/>
  </symbol>
  <symbol id="platform-drive" viewBox="0 0 36 36">
    <path fill="#0066DA" d="m7 20.5 1.2 2c.2.5.6.9 1 1.1 1.8-2.2 3.2-4.6 4.2-7.3-2.8-.5-5.6-.5-8.4 0 0 .5.1 1 .4 1.4L7 20.5Z"/>
    <path fill="#EA4335" d="M27.6 23.6c.4-.2.8-.6 1-1l.5-.9 2.3-4c.3-.4.4-1 .4-1.4-2.8-.5-5.6-.5-8.4 0 .7 1.7 1.2 3 1.7 3.8.5.8 1.3 2 2.5 3.5Z"/>
    <path fill="#00832D" d="M18.4 7.7c1.4-1.7 2.3-3 2.8-3.9.5-.7 1-1.8 1.4-3.4-.4-.3-.9-.4-1.4-.4h-5.6c-.5 0-1 .1-1.4.4.6 1.8 1.2 3 1.6 3.9.5.8 1.4 2 2.6 3.4Z"/>
    <path fill="#2684FC" d="M23.4 16.3h-10l-4.2 7.3c.4.2.9.4 1.4.4h15.6c.5 0 1-.2 1.4-.4l-4.2-7.3Z"/>
    <path fill="#00AC47" d="M18.4 7.7 14.2.4c-.4.2-.8.6-1 1L5.4 14.9c-.3.4-.4.9-.4 1.4h8.4l5-8.6Z"/>
    <path fill="#FFBA00" d="m27.5 8.1-3.9-6.7c-.2-.4-.6-.8-1-1l-4.2 7.3 5 8.6h8.4c0-.5-.1-1-.4-1.4l-3.9-6.8Z"/>
  </symbol>

  <symbol id="file-pdf" viewBox="0 0 40 40">
    <path fill="#FF2116" d="M8.13 0A4.14 4.14 0 0 0 4 4.13v31.74A4.14 4.14 0 0 0 8.13 40H32.4a4.14 4.14 0 0 0 4.13-4.13V9.77s.06-.76-.27-1.5a4.18 4.18 0 0 0-.82-1.19l-6.02-5.9-.01-.02S28.9.67 28.13.35c-.9-.39-1.82-.35-1.82-.35h.02-18.2Z"/>
    <path fill="#F5F5F5" d="M8.13 1.36h18.21s.73 0 1.26.23a3.45 3.45 0 0 1 .88.56l6 5.9s.37.37.54.77a2.94 2.94 0 0 1 .15.92v26.13a2.75 2.75 0 0 1-2.77 2.77H8.13a2.75 2.75 0 0 1-2.77-2.77V4.13a2.75 2.75 0 0 1 2.77-2.77Z"/>
    <path fill="#FF2116" d="M12.12 23.82c-.93-.94.08-2.22 2.82-3.58l1.73-.86.67-1.47c.37-.81.92-2.13 1.22-2.94l.56-1.46-.38-1.08c-.47-1.33-.64-3.33-.34-4.05.4-.97 1.72-.87 2.25.17.4.82.36 2.3-.12 4.15l-.4 1.53.35.6c.2.32.76 1.1 1.25 1.72l.93 1.15 1.16-.15c3.67-.48 4.93.34 4.93 1.5 0 1.48-2.89 1.6-5.31-.1a7.36 7.36 0 0 1-.92-.76s-1.52.3-2.26.5c-.77.22-1.16.35-2.29.73 0 0-.4.57-.65 1-.96 1.55-2.09 2.84-2.89 3.3-.9.53-1.83.57-2.3.1Zm1.47-.53c.52-.32 1.59-1.58 2.32-2.75l.3-.47-1.36.68c-2.1 1.06-3.05 2.05-2.55 2.65.28.34.61.3 1.29-.1Zm13.6-3.82c.52-.36.44-1.08-.14-1.37-.45-.23-.82-.28-1.99-.26-.72.05-1.88.2-2.08.24 0 0 .64.44.92.6.38.22 1.3.62 1.96.82.66.2 1.04.18 1.33-.03Zm-5.47-2.27c-.3-.33-.84-1-1.17-1.51-.44-.58-.66-.99-.66-.99s-.32 1.04-.58 1.66l-.82 2.02-.24.46s1.26-.41 1.9-.58c.69-.18 2.07-.45 2.07-.45l-.5-.61Zm-1.76-7.07c.08-.66.11-1.33-.1-1.66-.6-.65-1.31-.11-1.19 1.43.04.52.17 1.4.34 1.95l.32 1 .22-.75c.12-.42.3-1.3.4-1.97Z"/>
    <path fill="#2C2C2C" d="M13.71 28.14h1.52c.48 0 .87.05 1.18.14.3.09.55.3.76.6.2.32.3.7.3 1.13 0 .4-.07.75-.24 1.04-.17.3-.4.5-.68.63s-.71.2-1.3.2h-.53v2.38h-1.01v-6.12Zm1.01.79v2.13h.5c.46 0 .76-.08.94-.25.17-.17.26-.44.26-.82 0-.28-.06-.5-.17-.68-.12-.17-.24-.28-.38-.32a2.36 2.36 0 0 0-.64-.06h-.5Zm3.53-.79h1.38c.67 0 1.2.12 1.6.36.4.23.7.58.9 1.05a4.33 4.33 0 0 1 .03 3.15c-.18.47-.46.85-.84 1.13-.37.29-.91.43-1.61.43h-1.46v-6.12Zm1.02.81v4.5h.42c.59 0 1.02-.2 1.28-.6.27-.42.4-.96.4-1.65 0-1.5-.56-2.25-1.68-2.25h-.42Zm4.15-.8h3.4v.8h-2.39v1.83h1.91v.81h-1.9v2.67h-1.02v-6.12Z"/>
  </symbol>
  <symbol id="file-ppt" viewBox="0 0 40 40">
    <path stroke="#CC5334" fill="#fff" stroke-width="1.5" d="M21 6h17.5c.28 0 .5.22.5.5v27a.5.5 0 0 1-.5.5H21m0-8.5h15m-15 4h15"/>
    <path fill="#CC5334" d="M34 16a6 6 0 1 1-6-6v6h6Z"/>
    <path fill="#CC5334" d="M35.5 14.5a6 6 0 0 0-6-6v6h6Z"/>
    <path fill="#C75F44" d="M23.5 0 0 4.5v31L23.5 40V0Z"/>
    <path fill="#fff" d="M10.42 22.08h.41a4.59 4.59 0 0 0 0-9.16H7.92v14.25l2.5.18v-5.27Zm0-6.66h.41a2.09 2.09 0 0 1 0 4.16h-.41v-4.16Z"/>
  </symbol>

  <symbol id="facebook" viewBox="0 0 24 24">
    <path fill="#fff" fill-rule="evenodd" d="M0 12c0 6 4.3 11 10 12v-8.7H7V12h3V9.3c0-3 2-4.6 4.7-4.6l2.6.2V8h-1.5c-1.5 0-1.8.7-1.8 1.7V12h3.2l-.5 3.3H14V24c5.7-1 10-6 10-12A12 12 0 0 0 12 0 12 12 0 0 0 0 12Z" clip-rule="evenodd"/>
  </symbol>
  <symbol id="quora" viewBox="0 0 24 24">
    <path fill="#fff" d="M13.1 18.7c-.8-1.6-1.8-3.3-3.7-3.3-.4 0-.7 0-1 .2l-.7-1.3a6 6 0 0 1 3.7-1.2c2.5 0 3.8 1.3 4.9 2.8a13 13 0 0 0 .9-5.4c0-5.5-1.8-8.4-5.9-8.4-4 0-5.7 2.9-5.7 8.4 0 5.6 1.7 8.4 5.7 8.4.7 0 1.3 0 1.8-.2Zm1 2c-.9.2-1.8.3-2.8.3C6 21 .7 16.8.7 10.5.8 4.3 6 0 11.3 0 16.8 0 22 4.2 22 10.5c0 3.6-1.7 6.4-4 8.2.7 1.2 1.5 2 2.6 2 1.2 0 1.7-1 1.8-1.7H24c0 1-.4 5-4.8 5-2.7 0-4-1.5-5.1-3.3Z"/>
  </symbol>
  <symbol id="discord" viewBox="0 0 24 24">
    <path fill="#fff" d="M20.3 4.5a20 20 0 0 0-5-1.5l-.6 1.3C13 4 11.1 4 9.3 4.3A12.4 12.4 0 0 0 8.6 3a20 20 0 0 0-5 1.5A19.7 19.7 0 0 0 .1 18a20 20 0 0 0 6.1 3 13.8 13.8 0 0 0 1.2-2v-.1a13.2 13.2 0 0 1-2-1h.1a10.8 10.8 0 0 0 .5-.3 14.4 14.4 0 0 0 12.1 0 9 9 0 0 0 .4.4 12.3 12.3 0 0 1-2 1 15.7 15.7 0 0 0 1.4 2 20 20 0 0 0 6-3 19.6 19.6 0 0 0-3.6-13.5ZM8 15.3c-1.2 0-2.1-1-2.1-2.4 0-1.3 1-2.4 2.1-2.4 1.2 0 2.2 1.1 2.2 2.4 0 1.3-1 2.4-2.2 2.4Zm8 0c-1.2 0-2.2-1-2.2-2.4 0-1.3 1-2.4 2.2-2.4 1.2 0 2.2 1.1 2.2 2.4 0 1.3-1 2.4-2.2 2.4Z"/>
  </symbol>
  <symbol id="telegram" viewBox="0 0 24 24">
    <path fill="#fff" fill-rule="evenodd" d="M24 12a12 12 0 1 1-24 0 12 12 0 0 1 24 0ZM12.43 8.86c-1.17.48-3.5 1.49-7 3.01-.57.23-.86.45-.9.67-.04.36.42.5 1.04.7l.27.08c.6.2 1.43.44 1.86.45.39 0 .82-.16 1.3-.48 3.27-2.21 4.96-3.33 5.06-3.35.08-.02.18-.04.25.02.07.07.07.18.06.22-.05.19-1.84 1.86-2.77 2.72a28.24 28.24 0 0 0-.82.79c-.57.54-1 .96.02 1.63.5.32.89.59 1.28.85a88.77 88.77 0 0 0 1.8 1.23c.5.35.95.67 1.5.62.32-.03.65-.33.82-1.23.4-2.13 1.18-6.73 1.36-8.63.01-.16 0-.31-.02-.47a.5.5 0 0 0-.17-.33.78.78 0 0 0-.46-.14c-.46.01-1.15.25-4.48 1.64Z" clip-rule="evenodd"/>
  </symbol>
</svg>