<svg viewBox="0 0 24 24" xmlns="http://www.w3.org/2000/svg" style="display:none">
  <symbol id="platform-upload" viewBox="0 0 36 36">
    <path fill="#4198FE" d="M17.1 15H20V6.8h4L18.5 0 13 6.8h4.1V15Z"/>
    <path fill="#4198FE" d="M29.3 19.3H7.7V10H5v9.3C5 20.8 6.2 22 7.7 22h21.6c.7 0 1.4-.3 2-.8.4-.5.7-1.2.7-1.9V10h-2.7v9.3Z"/>
  </symbol>
  <symbol id="platform-youtube" viewBox="0 0 36 36">
    <path fill="red" d="M34.3 3.7a4.3 4.3 0 0 0-3-3C28.6 0 18 0 18 0S7.3 0 4.7.7a4.3 4.3 0 0 0-3 3c-1 5.5-1 11 0 16.5a4.3 4.3 0 0 0 3 3c2.6.7 13.3.7 13.3.7s10.7 0 13.3-.7a4.3 4.3 0 0 0 3-3c1-5.5 1-11 0-16.5Z"/>
    <path fill="#fff" d="m14.6 17 8.8-5-8.8-5.2v10.3-.1Z"/>
  </symbol>
  <symbol id="platform-drive" viewBox="0 0 36 36">
    <path fill="#0066DA" d="m7 20.5 1.2 2c.2.5.6.9 1 1.1 1.8-2.2 3.2-4.6 4.2-7.3-2.8-.5-5.6-.5-8.4 0 0 .5.1 1 .4 1.4L7 20.5Z"/>
    <path fill="#EA4335" d="M27.6 23.6c.4-.2.8-.6 1-1l.5-.9 2.3-4c.3-.4.4-1 .4-1.4-2.8-.5-5.6-.5-8.4 0 .7 1.7 1.2 3 1.7 3.8.5.8 1.3 2 2.5 3.5Z"/>
    <path fill="#00832D" d="M18.4 7.7c1.4-1.7 2.3-3 2.8-3.9.5-.7 1-1.8 1.4-3.4-.4-.3-.9-.4-1.4-.4h-5.6c-.5 0-1 .1-1.4.4.6 1.8 1.2 3 1.6 3.9.5.8 1.4 2 2.6 3.4Z"/>
    <path fill="#2684FC" d="M23.4 16.3h-10l-4.2 7.3c.4.2.9.4 1.4.4h15.6c.5 0 1-.2 1.4-.4l-4.2-7.3Z"/>
    <path fill="#00AC47" d="M18.4 7.7 14.2.4c-.4.2-.8.6-1 1L5.4 14.9c-.3.4-.4.9-.4 1.4h8.4l5-8.6Z"/>
    <path fill="#FFBA00" d="m27.5 8.1-3.9-6.7c-.2-.4-.6-.8-1-1l-4.2 7.3 5 8.6h8.4c0-.5-.1-1-.4-1.4l-3.9-6.8Z"/>
  </symbol>

  <symbol id="file-pdf" viewBox="0 0 40 40">
    <path fill="#FF2116" d="M8.2 0A4.2 4.2 0 0 0 4 4.1V36c0 2.2 2 4 4.2 4h24.2c2.3 0 4.2-1.8 4.2-4V9.8s0-.8-.3-1.6a4 4 0 0 0-.8-1.1l-6-6-1.3-.8c-1-.3-1.9-.3-1.9-.3H8.2Z"/>
    <path fill="#F5F5F5" d="M8.2 1.3h18.1s.8 0 1.3.3l.9.5 6 6 .5.7c.2.3.2.9.2.9v26.2c0 1.6-1.3 2.8-2.8 2.8H8.2a2.8 2.8 0 0 1-2.9-2.8V4.2c0-1.5 1.3-2.8 2.9-2.8Z"/>
    <path fill="#FF2116" d="M12.2 23.8c-1-1 0-2.2 2.8-3.6l1.7-.8.7-1.5 1.2-3 .6-1.4-.4-1c-.5-1.4-.7-3.4-.4-4.1.5-1 1.7-.9 2.3.2.4.8.4 2.2-.1 4.1l-.5 1.5.4.6 1.2 1.7 1 1.2 1.2-.2c3.6-.4 4.9.4 4.9 1.5 0 1.5-3 1.6-5.3 0l-.9-.9-2.3.6-2.3.7-.6 1c-.7 1.3-1.7 2.4-2.9 3.3-.9.5-1.8.5-2.3 0v.1Zm1.4-.5c.5-.3 1.6-1.6 2.4-2.7l.3-.5-1.5.6c-2 1.1-3 2.1-2.5 2.7.3.4.6.3 1.3-.1Zm13.6-3.8c.6-.4.5-1.1-.1-1.4-.4-.2-.9-.3-2-.3l-2.1.3 1 .6 1.9.8c.6.2 1 .2 1.3 0Zm-5.5-2.3a13.4 13.4 0 0 1-1.8-2.5l-.6 1.7-.8 2-.2.5 1.9-.6 2-.4-.5-.7Zm-1.7-7c0-.7.1-1.4-.1-1.7-.6-.7-1.3-.1-1.2 1.4l.4 2 .3 1 .2-.8.4-2Z"/>
    <path fill="#2C2C2C" d="M13.7 28.1h1.5c.5 0 1 0 1.2.2.3 0 .6.3.8.6.2.3.3.7.3 1.1l-.2 1c-.2.4-.4.6-.7.7l-1.3.2h-.5v2.4h-1.1V28Zm1 .8v2.2h.5c.4 0 .8-.1 1-.3.2-.2.2-.4.2-.8 0-.3 0-.5-.2-.7L16 29h-1.1Zm3.6-.8h1.3c.7 0 1.3.1 1.6.4.5.2.8.5 1 1a4.7 4.7 0 0 1 0 3.2c-.2.4-.5.8-.9 1.1-.3.3-.9.5-1.6.5h-1.4V28Zm1 .8v4.5h.4c.6 0 1-.2 1.3-.6.2-.4.4-1 .4-1.6 0-1.5-.6-2.3-1.7-2.3h-.4Zm4.1-.8h3.4v.8h-2.3v1.9h1.9v.8h-2v2.7h-1V28Z"/>
  </symbol>
  <symbol id="file-ppt" viewBox="0 0 40 40">
    <path fill="#CC5334" d="M39.2 35H22.5a.8.8 0 0 1 0-1.7h15.8V6.7H22.5a.8.8 0 0 1 0-1.7h16.7c.5 0 .8.3.8.8v28.4c0 .5-.3.8-.8.8Z"/>
    <path fill="#CC5334" d="M27.5 10a5.8 5.8 0 1 0 5.8 5.8h-5.8V10Z"/>
    <path fill="#CC5334" d="M29.2 8.3v5.9H35c0-3.4-2.7-5.9-5.8-5.9Zm-6.7 15.9h13.3v1.6H22.5v-1.6Zm0 5h13.3v1.6H22.5v-1.6Z"/>
    <path fill="url(#a)" d="M23.3 0 0 4.3v31.4L23.3 40V0Z"/>
    <path fill="#fff" d="M10.5 22.2h.3a4.7 4.7 0 0 0 0-9.4h-3v14.4l2.5.1v-5.1h.2Zm0-6.7h.3a2.2 2.2 0 0 1 0 4h-.5v-4h.2Z"/>
    <defs>
    <linearGradient id="a" x1="0" x2="23.3" y1="20" y2="20" gradientUnits="userSpaceOnUse">
      <stop stop-color="#D7785F"/>
      <stop offset="1" stop-color="#C75F44"/>
    </linearGradient>
    </defs>
  </symbol>

  <symbol id="facebook" viewBox="0 0 24 24">
    <path fill="#fff" fill-rule="evenodd" d="M0 12c0 6 4.3 11 10 12v-8.7H7V12h3V9.3c0-3 2-4.6 4.7-4.6l2.6.2V8h-1.5c-1.5 0-1.8.7-1.8 1.7V12h3.2l-.5 3.3H14V24c5.7-1 10-6 10-12A12 12 0 0 0 12 0 12 12 0 0 0 0 12Z" clip-rule="evenodd"/>
  </symbol>
  <symbol id="quora" viewBox="0 0 24 24">
    <path fill="#fff" d="M13.1 18.7c-.8-1.6-1.8-3.3-3.7-3.3-.4 0-.7 0-1 .2l-.7-1.3a6 6 0 0 1 3.7-1.2c2.5 0 3.8 1.3 4.9 2.8a13 13 0 0 0 .9-5.4c0-5.5-1.8-8.4-5.9-8.4-4 0-5.7 2.9-5.7 8.4 0 5.6 1.7 8.4 5.7 8.4.7 0 1.3 0 1.8-.2Zm1 2c-.9.2-1.8.3-2.8.3C6 21 .7 16.8.7 10.5.8 4.3 6 0 11.3 0 16.8 0 22 4.2 22 10.5c0 3.6-1.7 6.4-4 8.2.7 1.2 1.5 2 2.6 2 1.2 0 1.7-1 1.8-1.7H24c0 1-.4 5-4.8 5-2.7 0-4-1.5-5.1-3.3Z"/>
  </symbol>
  <symbol id="discord" viewBox="0 0 24 24">
    <path fill="#fff" d="M20.3 4.5a20 20 0 0 0-5-1.5l-.6 1.3C13 4 11.1 4 9.3 4.3A12.4 12.4 0 0 0 8.6 3a20 20 0 0 0-5 1.5A19.7 19.7 0 0 0 .1 18a20 20 0 0 0 6.1 3 13.8 13.8 0 0 0 1.2-2v-.1a13.2 13.2 0 0 1-2-1h.1a10.8 10.8 0 0 0 .5-.3 14.4 14.4 0 0 0 12.1 0 9 9 0 0 0 .4.4 12.3 12.3 0 0 1-2 1 15.7 15.7 0 0 0 1.4 2 20 20 0 0 0 6-3 19.6 19.6 0 0 0-3.6-13.5ZM8 15.3c-1.2 0-2.1-1-2.1-2.4 0-1.3 1-2.4 2.1-2.4 1.2 0 2.2 1.1 2.2 2.4 0 1.3-1 2.4-2.2 2.4Zm8 0c-1.2 0-2.2-1-2.2-2.4 0-1.3 1-2.4 2.2-2.4 1.2 0 2.2 1.1 2.2 2.4 0 1.3-1 2.4-2.2 2.4Z"/>
  </symbol>
  <symbol id="telegram" viewBox="0 0 24 24">
    <path fill="#fff" fill-rule="evenodd" d="M24 12a12 12 0 1 1-24 0 12 12 0 0 1 24 0ZM12.43 8.86c-1.17.48-3.5 1.49-7 3.01-.57.23-.86.45-.9.67-.04.36.42.5 1.04.7l.27.08c.6.2 1.43.44 1.86.45.39 0 .82-.16 1.3-.48 3.27-2.21 4.96-3.33 5.06-3.35.08-.02.18-.04.25.02.07.07.07.18.06.22-.05.19-1.84 1.86-2.77 2.72a28.24 28.24 0 0 0-.82.79c-.57.54-1 .96.02 1.63.5.32.89.59 1.28.85a88.77 88.77 0 0 0 1.8 1.23c.5.35.95.67 1.5.62.32-.03.65-.33.82-1.23.4-2.13 1.18-6.73 1.36-8.63.01-.16 0-.31-.02-.47a.5.5 0 0 0-.17-.33.78.78 0 0 0-.46-.14c-.46.01-1.15.25-4.48 1.64Z" clip-rule="evenodd"/>
  </symbol>
</svg>