<svg width="36" height="24" viewBox="0 0 36 24" fill="none" xmlns="http://www.w3.org/2000/svg">
<path fill-rule="evenodd" clip-rule="evenodd" d="M0.5 12.0001C0.5 11.6686 0.631696 11.3507 0.866116 11.1162C1.10054 10.8818 1.41848 10.7501 1.75 10.7501H31.2325L23.365 2.88511C23.1303 2.6504 22.9984 2.33205 22.9984 2.00011C22.9984 1.66817 23.1303 1.34983 23.365 1.11511C23.5997 0.880397 23.9181 0.748535 24.25 0.748535C24.5819 0.748535 24.9003 0.880397 25.135 1.11511L35.135 11.1151C35.2514 11.2312 35.3438 11.3692 35.4068 11.521C35.4698 11.6729 35.5022 11.8357 35.5022 12.0001C35.5022 12.1645 35.4698 12.3273 35.4068 12.4792C35.3438 12.6311 35.2514 12.769 35.135 12.8851L25.135 22.8851C24.9003 23.1198 24.5819 23.2517 24.25 23.2517C23.9181 23.2517 23.5997 23.1198 23.365 22.8851C23.1303 22.6504 22.9984 22.3321 22.9984 22.0001C22.9984 21.6682 23.1303 21.3498 23.365 21.1151L31.2325 13.2501H1.75C1.41848 13.2501 1.10054 13.1184 0.866116 12.884C0.631696 12.6496 0.5 12.3316 0.5 12.0001Z" fill="#181818"/>
</svg>
