<svg width="36" height="24" viewBox="0 0 36 24" fill="none" xmlns="http://www.w3.org/2000/svg">
<g clip-path="url(#clip0_4_32)">
<path d="M34.3126 3.74333C34.1168 3.01981 33.7349 2.36019 33.2049 1.83017C32.6749 1.30015 32.0153 0.918215 31.2918 0.7224C28.643 0 17.9825 0 17.9825 0C17.9825 0 7.32143 0.0218666 4.67263 0.744267C3.9491 0.940093 3.28949 1.32205 2.75949 1.85209C2.22949 2.38214 1.84759 3.04178 1.65183 3.76533C0.850628 8.47173 0.539828 15.6432 1.67383 20.1613C1.86961 20.8849 2.25152 21.5445 2.78151 22.0745C3.31151 22.6045 3.97111 22.9865 4.69463 23.1823C7.34343 23.9047 18.0042 23.9047 18.0042 23.9047C18.0042 23.9047 28.6649 23.9047 31.3136 23.1823C32.0371 22.9865 32.6967 22.6045 33.2268 22.0745C33.7568 21.5445 34.1387 20.8849 34.3345 20.1613C35.1796 15.4483 35.44 8.28133 34.3126 3.74347V3.74333Z" fill="#FF0000"/>
<path d="M14.5894 17.0747L23.4332 11.9523L14.5894 6.82986V17.0747Z" fill="white"/>
</g>
<defs>
<clipPath id="clip0_4_32">
<rect width="34.1333" height="24" fill="white" transform="translate(0.933319)"/>
</clipPath>
</defs>
</svg>
