<svg width="28" height="24" viewBox="0 0 28 24" fill="none" xmlns="http://www.w3.org/2000/svg">
<g clip-path="url(#clip0_4_35)">
<path d="M2.61351 20.5451L3.79674 22.5887C4.04261 23.019 4.39601 23.3571 4.81093 23.603C5.9994 22.0945 6.82651 20.9368 7.29267 20.1301C7.76565 19.3115 8.34699 18.0309 9.03671 16.2886C7.17791 16.0438 5.76935 15.9215 4.81103 15.9215C3.89117 15.9215 2.48261 16.0438 0.585144 16.2886C0.585144 16.7649 0.708079 17.2412 0.953948 17.6715L2.61351 20.5451Z" fill="#0066DA"/>
<path d="M23.1893 23.603C23.6043 23.3571 23.9577 23.019 24.2034 22.5888L24.6952 21.7437L27.0463 17.6715C27.2877 17.2506 27.4148 16.7738 27.415 16.2886C25.5066 16.0438 24.1006 15.9215 23.197 15.9215C22.2259 15.9215 20.8199 16.0438 18.9789 16.2886C19.6604 18.0405 20.2341 19.3211 20.7 20.1301C21.1698 20.9464 21.9995 22.104 23.1893 23.603Z" fill="#EA4335"/>
<path d="M14.0001 7.68325C15.3751 6.02264 16.3228 4.74204 16.8429 3.84168C17.2618 3.11665 17.7228 1.95899 18.2259 0.368804C17.811 0.122935 17.3346 0 16.8429 0H11.1573C10.6656 0 10.1893 0.138341 9.77432 0.368804C10.4143 2.19259 10.9573 3.49059 11.4034 4.26267C11.8964 5.11598 12.762 6.25614 14.0001 7.68325Z" fill="#00832D"/>
<path d="M18.9635 16.2886H9.03671L4.81104 23.603C5.22585 23.8489 5.70218 23.9718 6.19392 23.9718H21.8063C22.298 23.9718 22.7745 23.8335 23.1893 23.6029L18.9636 16.2886H18.9635Z" fill="#2684FC"/>
<path d="M14.0001 7.68324L9.77442 0.368896C9.3594 0.614765 9.006 0.952757 8.76013 1.38308L0.953948 14.9056C0.712598 15.3265 0.585463 15.8033 0.585144 16.2885H9.03671L14.0002 7.68324H14.0001Z" fill="#00AC47"/>
<path d="M23.1433 8.14428L19.2401 1.38299C18.9943 0.952665 18.6408 0.614674 18.2259 0.368805L14.0002 7.68325L18.9635 16.2886H27.3998C27.3998 15.8121 27.2768 15.3359 27.031 14.9056L23.1433 8.14428Z" fill="#FFBA00"/>
</g>
<defs>
<clipPath id="clip0_4_35">
<rect width="26.8297" height="24" fill="white" transform="translate(0.585144)"/>
</clipPath>
</defs>
</svg>
