<svg width="55" height="19" viewBox="0 0 55 19" fill="none" xmlns="http://www.w3.org/2000/svg">
<path d="M7.54713 18L0.011125 1.08H3.34713L9.41913 15.288H8.41113L14.4831 1.08H17.6991L10.1631 18H7.54713ZM19.132 18V5.88H22.132V18H19.132ZM18.964 3.6V0.671999H22.3V3.6H18.964ZM24.9098 18V16.032L32.4938 7.416V8.136H24.9098V5.88H35.2058V7.848L27.5498 16.536L27.5258 15.744H35.4698V18H24.9098ZM38.0226 18V0.335999H41.0226V18H38.0226ZM50.1364 18.24C48.1044 18.24 46.5124 17.68 45.3604 16.56C44.2084 15.44 43.6324 13.904 43.6324 11.952C43.6324 10.688 43.8804 9.584 44.3764 8.64C44.8724 7.696 45.5604 6.96 46.4404 6.432C47.3364 5.904 48.3764 5.64 49.5604 5.64C50.7284 5.64 51.7044 5.888 52.4884 6.384C53.2724 6.88 53.8644 7.576 54.2644 8.472C54.6804 9.368 54.8884 10.416 54.8884 11.616V12.408H46.0564V10.824H52.7524L52.3444 11.16C52.3444 10.04 52.1044 9.184 51.6244 8.592C51.1604 8 50.4804 7.704 49.5844 7.704C48.5924 7.704 47.8244 8.056 47.2804 8.76C46.7524 9.464 46.4884 10.448 46.4884 11.712V12.024C46.4884 13.336 46.8084 14.32 47.4484 14.976C48.1044 15.616 49.0244 15.936 50.2084 15.936C50.8964 15.936 51.5364 15.848 52.1284 15.672C52.7364 15.48 53.3124 15.176 53.8564 14.76L54.7444 16.776C54.1684 17.24 53.4804 17.6 52.6804 17.856C51.8804 18.112 51.0324 18.24 50.1364 18.24Z" fill="black"/>
</svg>
